<mxfile host="app.diagrams.net" agent="Mozilla/5.0 (Windows NT 10.0; Win64; x64) AppleWebKit/537.36 (KHTML, like Gecko) Chrome/137.0.0.0 Safari/537.36" version="27.1.6">
  <diagram name="PÃ¡gina-1" id="ENRQjQ2MEZYB77YcNae1">
    <mxGraphModel dx="2505" dy="2043" grid="1" gridSize="10" guides="1" tooltips="1" connect="1" arrows="1" fold="1" page="1" pageScale="1" pageWidth="827" pageHeight="1169" math="0" shadow="0">
      <root>
        <mxCell id="0" />
        <mxCell id="1" parent="0" />
        <mxCell id="XIWKyDKtCgvxdbFmIk-G-2" value="" style="endArrow=none;html=1;rounded=0;fillColor=#f8cecc;strokeColor=#b85450;strokeWidth=2;" edge="1" parent="1">
          <mxGeometry width="50" height="50" relative="1" as="geometry">
            <mxPoint x="80" y="1170" as="sourcePoint" />
            <mxPoint x="80" y="20" as="targetPoint" />
          </mxGeometry>
        </mxCell>
        <mxCell id="XIWKyDKtCgvxdbFmIk-G-3" value="" style="endArrow=none;html=1;rounded=0;fillColor=#f8cecc;strokeColor=#b85450;strokeWidth=2;" edge="1" parent="1">
          <mxGeometry width="50" height="50" relative="1" as="geometry">
            <mxPoint x="160" y="1170" as="sourcePoint" />
            <mxPoint x="160" y="20" as="targetPoint" />
          </mxGeometry>
        </mxCell>
        <mxCell id="XIWKyDKtCgvxdbFmIk-G-4" value="" style="endArrow=none;html=1;rounded=0;fillColor=#f8cecc;strokeColor=#b85450;strokeWidth=2;" edge="1" parent="1">
          <mxGeometry width="50" height="50" relative="1" as="geometry">
            <mxPoint x="240" y="1170" as="sourcePoint" />
            <mxPoint x="240" y="20" as="targetPoint" />
          </mxGeometry>
        </mxCell>
        <mxCell id="XIWKyDKtCgvxdbFmIk-G-5" value="" style="endArrow=none;html=1;rounded=0;fillColor=#f8cecc;strokeColor=#b85450;strokeWidth=2;" edge="1" parent="1">
          <mxGeometry width="50" height="50" relative="1" as="geometry">
            <mxPoint x="320" y="1169" as="sourcePoint" />
            <mxPoint x="320" y="19" as="targetPoint" />
          </mxGeometry>
        </mxCell>
        <mxCell id="XIWKyDKtCgvxdbFmIk-G-6" value="" style="endArrow=none;html=1;rounded=0;fillColor=#f8cecc;strokeColor=#b85450;strokeWidth=2;" edge="1" parent="1">
          <mxGeometry width="50" height="50" relative="1" as="geometry">
            <mxPoint x="400" y="1169" as="sourcePoint" />
            <mxPoint x="400" y="19" as="targetPoint" />
          </mxGeometry>
        </mxCell>
        <mxCell id="XIWKyDKtCgvxdbFmIk-G-7" value="" style="endArrow=none;html=1;rounded=0;fillColor=#f8cecc;strokeColor=#b85450;strokeWidth=2;" edge="1" parent="1">
          <mxGeometry width="50" height="50" relative="1" as="geometry">
            <mxPoint x="480" y="1169" as="sourcePoint" />
            <mxPoint x="480" y="19" as="targetPoint" />
          </mxGeometry>
        </mxCell>
        <mxCell id="XIWKyDKtCgvxdbFmIk-G-8" value="" style="endArrow=none;html=1;rounded=0;fillColor=#f8cecc;strokeColor=#b85450;strokeWidth=2;" edge="1" parent="1">
          <mxGeometry width="50" height="50" relative="1" as="geometry">
            <mxPoint x="560" y="1169" as="sourcePoint" />
            <mxPoint x="560" y="19" as="targetPoint" />
          </mxGeometry>
        </mxCell>
        <mxCell id="XIWKyDKtCgvxdbFmIk-G-9" value="" style="endArrow=none;html=1;rounded=0;fillColor=#f8cecc;strokeColor=#b85450;strokeWidth=2;" edge="1" parent="1">
          <mxGeometry width="50" height="50" relative="1" as="geometry">
            <mxPoint x="640" y="1169" as="sourcePoint" />
            <mxPoint x="640" y="19" as="targetPoint" />
          </mxGeometry>
        </mxCell>
        <mxCell id="XIWKyDKtCgvxdbFmIk-G-10" value="" style="endArrow=none;html=1;rounded=0;fillColor=#f8cecc;strokeColor=#b85450;strokeWidth=2;" edge="1" parent="1">
          <mxGeometry width="50" height="50" relative="1" as="geometry">
            <mxPoint x="800" y="1169" as="sourcePoint" />
            <mxPoint x="800" y="19" as="targetPoint" />
          </mxGeometry>
        </mxCell>
        <mxCell id="XIWKyDKtCgvxdbFmIk-G-11" value="" style="endArrow=none;html=1;rounded=0;fillColor=#f8cecc;strokeColor=#b85450;strokeWidth=2;" edge="1" parent="1">
          <mxGeometry width="50" height="50" relative="1" as="geometry">
            <mxPoint x="720" y="1169" as="sourcePoint" />
            <mxPoint x="720" y="19" as="targetPoint" />
          </mxGeometry>
        </mxCell>
        <mxCell id="XIWKyDKtCgvxdbFmIk-G-12" value="" style="endArrow=none;html=1;rounded=0;fillColor=#f8cecc;strokeColor=#b85450;strokeWidth=2;" edge="1" parent="1">
          <mxGeometry width="50" height="50" relative="1" as="geometry">
            <mxPoint x="880" y="1169" as="sourcePoint" />
            <mxPoint x="880" y="19" as="targetPoint" />
          </mxGeometry>
        </mxCell>
        <mxCell id="XIWKyDKtCgvxdbFmIk-G-13" value="" style="endArrow=none;html=1;rounded=0;fillColor=#f8cecc;strokeColor=#b85450;strokeWidth=2;" edge="1" parent="1">
          <mxGeometry width="50" height="50" relative="1" as="geometry">
            <mxPoint x="960" y="1169" as="sourcePoint" />
            <mxPoint x="960" y="19" as="targetPoint" />
          </mxGeometry>
        </mxCell>
        <mxCell id="XIWKyDKtCgvxdbFmIk-G-14" value="" style="endArrow=none;html=1;rounded=0;fillColor=#f8cecc;strokeColor=#b85450;strokeWidth=2;" edge="1" parent="1">
          <mxGeometry width="50" height="50" relative="1" as="geometry">
            <mxPoint y="1169" as="sourcePoint" />
            <mxPoint y="19" as="targetPoint" />
          </mxGeometry>
        </mxCell>
        <mxCell id="XIWKyDKtCgvxdbFmIk-G-15" value="1" style="whiteSpace=wrap;html=1;aspect=fixed;fontSize=31;" vertex="1" parent="1">
          <mxGeometry y="-80" width="80" height="80" as="geometry" />
        </mxCell>
        <mxCell id="XIWKyDKtCgvxdbFmIk-G-16" value="2" style="whiteSpace=wrap;html=1;aspect=fixed;fontSize=31;" vertex="1" parent="1">
          <mxGeometry x="80" y="-80" width="80" height="80" as="geometry" />
        </mxCell>
        <mxCell id="XIWKyDKtCgvxdbFmIk-G-17" value="3" style="whiteSpace=wrap;html=1;aspect=fixed;fontSize=31;" vertex="1" parent="1">
          <mxGeometry x="160" y="-80" width="80" height="80" as="geometry" />
        </mxCell>
        <mxCell id="XIWKyDKtCgvxdbFmIk-G-18" value="1" style="whiteSpace=wrap;html=1;aspect=fixed;fontSize=31;" vertex="1" parent="1">
          <mxGeometry x="240" y="-80" width="80" height="80" as="geometry" />
        </mxCell>
        <mxCell id="XIWKyDKtCgvxdbFmIk-G-19" value="4" style="whiteSpace=wrap;html=1;aspect=fixed;fontSize=31;" vertex="1" parent="1">
          <mxGeometry x="240" y="-80" width="80" height="80" as="geometry" />
        </mxCell>
        <mxCell id="XIWKyDKtCgvxdbFmIk-G-20" value="1" style="whiteSpace=wrap;html=1;aspect=fixed;fontSize=31;" vertex="1" parent="1">
          <mxGeometry x="320" y="-80" width="80" height="80" as="geometry" />
        </mxCell>
        <mxCell id="XIWKyDKtCgvxdbFmIk-G-21" value="5" style="whiteSpace=wrap;html=1;aspect=fixed;fontSize=31;" vertex="1" parent="1">
          <mxGeometry x="320" y="-80" width="80" height="80" as="geometry" />
        </mxCell>
        <mxCell id="XIWKyDKtCgvxdbFmIk-G-22" value="1" style="whiteSpace=wrap;html=1;aspect=fixed;fontSize=31;" vertex="1" parent="1">
          <mxGeometry x="400" y="-80" width="80" height="80" as="geometry" />
        </mxCell>
        <mxCell id="XIWKyDKtCgvxdbFmIk-G-23" value="6" style="whiteSpace=wrap;html=1;aspect=fixed;fontSize=31;" vertex="1" parent="1">
          <mxGeometry x="400" y="-80" width="80" height="80" as="geometry" />
        </mxCell>
        <mxCell id="XIWKyDKtCgvxdbFmIk-G-24" value="1" style="whiteSpace=wrap;html=1;aspect=fixed;fontSize=31;" vertex="1" parent="1">
          <mxGeometry x="480" y="-80" width="80" height="80" as="geometry" />
        </mxCell>
        <mxCell id="XIWKyDKtCgvxdbFmIk-G-25" value="7" style="whiteSpace=wrap;html=1;aspect=fixed;fontSize=31;" vertex="1" parent="1">
          <mxGeometry x="480" y="-80" width="80" height="80" as="geometry" />
        </mxCell>
        <mxCell id="XIWKyDKtCgvxdbFmIk-G-26" value="8" style="whiteSpace=wrap;html=1;aspect=fixed;fontSize=31;" vertex="1" parent="1">
          <mxGeometry x="560" y="-80" width="80" height="80" as="geometry" />
        </mxCell>
        <mxCell id="XIWKyDKtCgvxdbFmIk-G-27" value="12" style="whiteSpace=wrap;html=1;aspect=fixed;fontSize=31;" vertex="1" parent="1">
          <mxGeometry x="880" y="-80" width="80" height="80" as="geometry" />
        </mxCell>
        <mxCell id="XIWKyDKtCgvxdbFmIk-G-28" value="9" style="whiteSpace=wrap;html=1;aspect=fixed;fontSize=31;" vertex="1" parent="1">
          <mxGeometry x="640" y="-80" width="80" height="80" as="geometry" />
        </mxCell>
        <mxCell id="XIWKyDKtCgvxdbFmIk-G-29" value="11" style="whiteSpace=wrap;html=1;aspect=fixed;fontSize=31;" vertex="1" parent="1">
          <mxGeometry x="800" y="-80" width="80" height="80" as="geometry" />
        </mxCell>
        <mxCell id="XIWKyDKtCgvxdbFmIk-G-30" value="10" style="whiteSpace=wrap;html=1;aspect=fixed;fontSize=31;" vertex="1" parent="1">
          <mxGeometry x="720" y="-80" width="80" height="80" as="geometry" />
        </mxCell>
        <mxCell id="XIWKyDKtCgvxdbFmIk-G-31" value="" style="rounded=0;whiteSpace=wrap;html=1;" vertex="1" parent="1">
          <mxGeometry x="240" y="40" width="720" height="70" as="geometry" />
        </mxCell>
        <mxCell id="XIWKyDKtCgvxdbFmIk-G-32" value="" style="rounded=0;whiteSpace=wrap;html=1;" vertex="1" parent="1">
          <mxGeometry y="280" width="240" height="390" as="geometry" />
        </mxCell>
        <mxCell id="XIWKyDKtCgvxdbFmIk-G-33" value="ABOUT" style="rounded=0;whiteSpace=wrap;html=1;" vertex="1" parent="1">
          <mxGeometry x="60" y="310" width="120" height="60" as="geometry" />
        </mxCell>
        <mxCell id="XIWKyDKtCgvxdbFmIk-G-36" value="SKILLS &amp;amp; EDUCATION" style="rounded=0;whiteSpace=wrap;html=1;" vertex="1" parent="1">
          <mxGeometry x="60" y="400" width="120" height="60" as="geometry" />
        </mxCell>
        <mxCell id="XIWKyDKtCgvxdbFmIk-G-37" value="EXPERIENCE" style="rounded=0;whiteSpace=wrap;html=1;" vertex="1" parent="1">
          <mxGeometry x="60" y="580" width="120" height="60" as="geometry" />
        </mxCell>
        <mxCell id="XIWKyDKtCgvxdbFmIk-G-38" value="PROJECTS" style="rounded=0;whiteSpace=wrap;html=1;" vertex="1" parent="1">
          <mxGeometry x="60" y="490" width="120" height="60" as="geometry" />
        </mxCell>
        <mxCell id="XIWKyDKtCgvxdbFmIk-G-39" value="" style="rounded=0;whiteSpace=wrap;html=1;" vertex="1" parent="1">
          <mxGeometry x="240" y="110" width="720" height="330" as="geometry" />
        </mxCell>
        <mxCell id="XIWKyDKtCgvxdbFmIk-G-42" value="" style="whiteSpace=wrap;html=1;aspect=fixed;" vertex="1" parent="1">
          <mxGeometry y="40" width="240" height="240" as="geometry" />
        </mxCell>
        <mxCell id="XIWKyDKtCgvxdbFmIk-G-44" value="" style="html=1;verticalLabelPosition=bottom;align=center;labelBackgroundColor=#ffffff;verticalAlign=top;strokeWidth=2;shadow=0;dashed=0;shape=mxgraph.ios7.icons.user;" vertex="1" parent="1">
          <mxGeometry x="40" y="80" width="160" height="160" as="geometry" />
        </mxCell>
        <mxCell id="XIWKyDKtCgvxdbFmIk-G-45" value="" style="dashed=0;outlineConnect=0;html=1;align=center;labelPosition=center;verticalLabelPosition=bottom;verticalAlign=top;shape=mxgraph.weblogos.github" vertex="1" parent="1">
          <mxGeometry x="905" y="60" width="30" height="30" as="geometry" />
        </mxCell>
        <mxCell id="XIWKyDKtCgvxdbFmIk-G-46" value="" style="dashed=0;outlineConnect=0;html=1;align=center;labelPosition=center;verticalLabelPosition=bottom;verticalAlign=top;shape=mxgraph.webicons.linkedin;fillColor=#0095DB;gradientColor=#006391" vertex="1" parent="1">
          <mxGeometry x="860" y="60" width="30" height="30" as="geometry" />
        </mxCell>
        <mxCell id="XIWKyDKtCgvxdbFmIk-G-47" value="Contact me" style="rounded=0;whiteSpace=wrap;html=1;" vertex="1" parent="1">
          <mxGeometry x="750" y="60" width="100" height="30" as="geometry" />
        </mxCell>
        <mxCell id="XIWKyDKtCgvxdbFmIk-G-48" value="" style="rounded=0;whiteSpace=wrap;html=1;" vertex="1" parent="1">
          <mxGeometry y="670" width="240" height="90" as="geometry" />
        </mxCell>
        <mxCell id="XIWKyDKtCgvxdbFmIk-G-51" value="Contact me" style="rounded=0;whiteSpace=wrap;html=1;" vertex="1" parent="1">
          <mxGeometry x="27.5" y="700" width="100" height="30" as="geometry" />
        </mxCell>
        <mxCell id="XIWKyDKtCgvxdbFmIk-G-52" value="" style="dashed=0;outlineConnect=0;html=1;align=center;labelPosition=center;verticalLabelPosition=bottom;verticalAlign=top;shape=mxgraph.webicons.linkedin;fillColor=#0095DB;gradientColor=#006391" vertex="1" parent="1">
          <mxGeometry x="137.5" y="700" width="30" height="30" as="geometry" />
        </mxCell>
        <mxCell id="XIWKyDKtCgvxdbFmIk-G-53" value="" style="dashed=0;outlineConnect=0;html=1;align=center;labelPosition=center;verticalLabelPosition=bottom;verticalAlign=top;shape=mxgraph.weblogos.github" vertex="1" parent="1">
          <mxGeometry x="182.5" y="700" width="30" height="30" as="geometry" />
        </mxCell>
        <mxCell id="XIWKyDKtCgvxdbFmIk-G-55" value="Roger Navarro" style="rounded=0;whiteSpace=wrap;html=1;" vertex="1" parent="1">
          <mxGeometry x="260" y="60" width="100" height="30" as="geometry" />
        </mxCell>
        <mxCell id="XIWKyDKtCgvxdbFmIk-G-56" value="Software Developer" style="rounded=0;whiteSpace=wrap;html=1;" vertex="1" parent="1">
          <mxGeometry x="360" y="60" width="120" height="30" as="geometry" />
        </mxCell>
        <mxCell id="XIWKyDKtCgvxdbFmIk-G-57" value="" style="rounded=0;whiteSpace=wrap;html=1;" vertex="1" parent="1">
          <mxGeometry x="-290" y="40" width="240" height="70" as="geometry" />
        </mxCell>
        <mxCell id="XIWKyDKtCgvxdbFmIk-G-58" value="Roger Navarro" style="rounded=0;whiteSpace=wrap;html=1;" vertex="1" parent="1">
          <mxGeometry x="-280" y="60" width="100" height="30" as="geometry" />
        </mxCell>
        <mxCell id="XIWKyDKtCgvxdbFmIk-G-59" value="Software Developer" style="rounded=0;whiteSpace=wrap;html=1;" vertex="1" parent="1">
          <mxGeometry x="-180" y="60" width="120" height="30" as="geometry" />
        </mxCell>
        <mxCell id="XIWKyDKtCgvxdbFmIk-G-60" value="" style="curved=1;endArrow=classic;html=1;rounded=0;" edge="1" parent="1">
          <mxGeometry width="50" height="50" relative="1" as="geometry">
            <mxPoint x="-50" y="70" as="sourcePoint" />
            <mxPoint x="50" y="20" as="targetPoint" />
            <Array as="points">
              <mxPoint y="70" />
              <mxPoint x="-50" y="20" />
            </Array>
          </mxGeometry>
        </mxCell>
        <mxCell id="XIWKyDKtCgvxdbFmIk-G-61" value="Appear when photo is scrolled down" style="rounded=0;whiteSpace=wrap;html=1;" vertex="1" parent="1">
          <mxGeometry x="-240" y="130" width="120" height="60" as="geometry" />
        </mxCell>
        <mxCell id="XIWKyDKtCgvxdbFmIk-G-62" value="&lt;h1 style=&quot;margin-top: 0px;&quot;&gt;About&lt;/h1&gt;&lt;p&gt;Lorem ipsum dolor sit amet consectetur adipiscing elit, purus massa dictumst nisi interdum egestas neque magna, himenaeos facilisi tellus leo magnis facilisis. Leo aliquam suscipit sapien torquent ridiculus, habitant pellentesque porta nullam rutrum ac, diam vitae hendrerit habitasse. Vel quisque eu scelerisque pulvinar etiam nullam, facilisi sollicitudin integer pretium senectus.&lt;/p&gt;&lt;p&gt;Lorem ipsum dolor sit amet consectetur adipiscing elit, purus massa dictumst nisi interdum egestas neque magna, himenaeos facilisi tellus leo magnis facilisis. Leo aliquam suscipit sapien torquent ridiculus, habitant pellentesque porta nullam rutrum ac, diam vitae hendrerit habitasse. Vel quisque eu scelerisque pulvinar etiam nullam, facilisi sollicitudin integer pretium senectus.&lt;/p&gt;&lt;p&gt;Lorem ipsum dolor sit amet consectetur adipiscing elit, purus massa dictumst nisi interdum egestas neque magna, himenaeos facilisi tellus leo magnis facilisis. Leo aliquam suscipit sapien torquent ridiculus, habitant pellentesque porta nullam rutrum ac, diam vitae hendrerit habitasse. Vel quisque eu scelerisque pulvinar etiam nullam, facilisi sollicitudin integer pretium senectus.&lt;/p&gt;" style="text;html=1;whiteSpace=wrap;overflow=hidden;rounded=0;" vertex="1" parent="1">
          <mxGeometry x="290" y="150" width="630" height="250" as="geometry" />
        </mxCell>
        <mxCell id="XIWKyDKtCgvxdbFmIk-G-63" value="" style="rounded=0;whiteSpace=wrap;html=1;" vertex="1" parent="1">
          <mxGeometry x="240" y="440" width="720" height="420" as="geometry" />
        </mxCell>
        <mxCell id="XIWKyDKtCgvxdbFmIk-G-64" value="&lt;h1 style=&quot;margin-top: 0px;&quot;&gt;&lt;font style=&quot;font-size: 18px;&quot;&gt;Soft skills&lt;/font&gt;&lt;/h1&gt;&lt;p&gt;Lorem ipsum dolor sit amet consectetur adipiscing elit, purus massa dictumst nisi interdum egestas neque magna, himenaeos facilisi tellus leo magnis facilisis. Leo aliquam suscipit sapien torquent ridiculus, habitant pellentesque porta nullam rutrum ac, diam vitae hendrerit habitasse. Vel quisque eu scelerisque pulvinar etiam nullam, facilisi sollicitudin integer pretium senectus.&lt;/p&gt;&lt;h1 style=&quot;margin-top: 0px;&quot;&gt;&lt;font style=&quot;font-size: 18px;&quot;&gt;Hard skills&lt;/font&gt;&lt;/h1&gt;&lt;p&gt;Lorem ipsum dolor sit amet consectetur adipiscing elit, purus massa dictumst nisi interdum egestas neque magna, himenaeos facilisi tellus leo magnis facilisis. Leo aliquam suscipit sapien torquent ridiculus, habitant pellentesque porta nullam rutrum ac, diam vitae hendrerit habitasse. Vel quisque eu scelerisque pulvinar etiam nullam, facilisi sollicitudin integer pretium senectus.&lt;/p&gt;&lt;h1 style=&quot;margin-top: 0px;&quot;&gt;&lt;font style=&quot;font-size: 18px;&quot;&gt;Education&lt;/font&gt;&lt;/h1&gt;&lt;p&gt;Lorem ipsum dolor sit amet consectetur adipiscing elit, purus massa dictumst nisi interdum egestas neque magna, himenaeos facilisi tellus leo magnis facilisis. Leo aliquam suscipit sapien torquent ridiculus, habitant pellentesque porta nullam rutrum ac, diam vitae hendrerit habitasse. Vel quisque eu scelerisque pulvinar etiam nullam, facilisi sollicitudin integer pretium senectus.&lt;/p&gt;" style="text;html=1;whiteSpace=wrap;overflow=hidden;rounded=0;" vertex="1" parent="1">
          <mxGeometry x="275" y="470" width="630" height="350" as="geometry" />
        </mxCell>
        <mxCell id="XIWKyDKtCgvxdbFmIk-G-67" value="" style="endArrow=none;html=1;rounded=0;fillColor=#f8cecc;strokeColor=#b85450;strokeWidth=2;" edge="1" parent="1">
          <mxGeometry width="50" height="50" relative="1" as="geometry">
            <mxPoint x="960" y="2319" as="sourcePoint" />
            <mxPoint x="960" y="1169" as="targetPoint" />
          </mxGeometry>
        </mxCell>
        <mxCell id="XIWKyDKtCgvxdbFmIk-G-68" value="" style="endArrow=none;html=1;rounded=0;fillColor=#f8cecc;strokeColor=#b85450;strokeWidth=2;" edge="1" parent="1">
          <mxGeometry width="50" height="50" relative="1" as="geometry">
            <mxPoint x="880" y="2319" as="sourcePoint" />
            <mxPoint x="880" y="1169" as="targetPoint" />
          </mxGeometry>
        </mxCell>
        <mxCell id="XIWKyDKtCgvxdbFmIk-G-69" value="" style="endArrow=none;html=1;rounded=0;fillColor=#f8cecc;strokeColor=#b85450;strokeWidth=2;" edge="1" parent="1">
          <mxGeometry width="50" height="50" relative="1" as="geometry">
            <mxPoint x="800" y="2310" as="sourcePoint" />
            <mxPoint x="800" y="1160" as="targetPoint" />
          </mxGeometry>
        </mxCell>
        <mxCell id="XIWKyDKtCgvxdbFmIk-G-70" value="" style="endArrow=none;html=1;rounded=0;fillColor=#f8cecc;strokeColor=#b85450;strokeWidth=2;" edge="1" parent="1">
          <mxGeometry width="50" height="50" relative="1" as="geometry">
            <mxPoint x="720" y="2310" as="sourcePoint" />
            <mxPoint x="720" y="1160" as="targetPoint" />
          </mxGeometry>
        </mxCell>
        <mxCell id="XIWKyDKtCgvxdbFmIk-G-71" value="" style="endArrow=none;html=1;rounded=0;fillColor=#f8cecc;strokeColor=#b85450;strokeWidth=2;" edge="1" parent="1">
          <mxGeometry width="50" height="50" relative="1" as="geometry">
            <mxPoint x="640" y="2310" as="sourcePoint" />
            <mxPoint x="640" y="1160" as="targetPoint" />
          </mxGeometry>
        </mxCell>
        <mxCell id="XIWKyDKtCgvxdbFmIk-G-72" value="" style="endArrow=none;html=1;rounded=0;fillColor=#f8cecc;strokeColor=#b85450;strokeWidth=2;" edge="1" parent="1">
          <mxGeometry width="50" height="50" relative="1" as="geometry">
            <mxPoint x="559.9999999999999" y="2319" as="sourcePoint" />
            <mxPoint x="559.9999999999999" y="1169" as="targetPoint" />
          </mxGeometry>
        </mxCell>
        <mxCell id="XIWKyDKtCgvxdbFmIk-G-73" value="" style="endArrow=none;html=1;rounded=0;fillColor=#f8cecc;strokeColor=#b85450;strokeWidth=2;" edge="1" parent="1">
          <mxGeometry width="50" height="50" relative="1" as="geometry">
            <mxPoint x="479.99999999999994" y="2300" as="sourcePoint" />
            <mxPoint x="479.99999999999994" y="1150" as="targetPoint" />
          </mxGeometry>
        </mxCell>
        <mxCell id="XIWKyDKtCgvxdbFmIk-G-74" value="" style="endArrow=none;html=1;rounded=0;fillColor=#f8cecc;strokeColor=#b85450;strokeWidth=2;" edge="1" parent="1">
          <mxGeometry width="50" height="50" relative="1" as="geometry">
            <mxPoint x="399.99999999999994" y="2300" as="sourcePoint" />
            <mxPoint x="399.99999999999994" y="1150" as="targetPoint" />
          </mxGeometry>
        </mxCell>
        <mxCell id="XIWKyDKtCgvxdbFmIk-G-75" value="" style="endArrow=none;html=1;rounded=0;fillColor=#f8cecc;strokeColor=#b85450;strokeWidth=2;" edge="1" parent="1">
          <mxGeometry width="50" height="50" relative="1" as="geometry">
            <mxPoint x="239.99999999999994" y="2319" as="sourcePoint" />
            <mxPoint x="239.99999999999994" y="1169" as="targetPoint" />
          </mxGeometry>
        </mxCell>
        <mxCell id="XIWKyDKtCgvxdbFmIk-G-76" value="" style="endArrow=none;html=1;rounded=0;fillColor=#f8cecc;strokeColor=#b85450;strokeWidth=2;" edge="1" parent="1">
          <mxGeometry width="50" height="50" relative="1" as="geometry">
            <mxPoint x="319.99999999999994" y="2319" as="sourcePoint" />
            <mxPoint x="319.99999999999994" y="1169" as="targetPoint" />
          </mxGeometry>
        </mxCell>
        <mxCell id="XIWKyDKtCgvxdbFmIk-G-77" value="" style="endArrow=none;html=1;rounded=0;fillColor=#f8cecc;strokeColor=#b85450;strokeWidth=2;" edge="1" parent="1">
          <mxGeometry width="50" height="50" relative="1" as="geometry">
            <mxPoint x="159.99999999999994" y="2320" as="sourcePoint" />
            <mxPoint x="159.99999999999994" y="1170" as="targetPoint" />
          </mxGeometry>
        </mxCell>
        <mxCell id="XIWKyDKtCgvxdbFmIk-G-78" value="" style="endArrow=none;html=1;rounded=0;fillColor=#f8cecc;strokeColor=#b85450;strokeWidth=2;" edge="1" parent="1">
          <mxGeometry width="50" height="50" relative="1" as="geometry">
            <mxPoint x="79.99999999999994" y="2320" as="sourcePoint" />
            <mxPoint x="79.99999999999994" y="1170" as="targetPoint" />
          </mxGeometry>
        </mxCell>
        <mxCell id="XIWKyDKtCgvxdbFmIk-G-79" value="" style="endArrow=none;html=1;rounded=0;fillColor=#f8cecc;strokeColor=#b85450;strokeWidth=2;" edge="1" parent="1">
          <mxGeometry width="50" height="50" relative="1" as="geometry">
            <mxPoint x="-1.0000000000000568" y="2319" as="sourcePoint" />
            <mxPoint x="-1.0000000000000568" y="1169" as="targetPoint" />
          </mxGeometry>
        </mxCell>
        <mxCell id="XIWKyDKtCgvxdbFmIk-G-65" value="" style="rounded=0;whiteSpace=wrap;html=1;" vertex="1" parent="1">
          <mxGeometry x="240" y="860" width="720" height="1180" as="geometry" />
        </mxCell>
        <mxCell id="XIWKyDKtCgvxdbFmIk-G-94" value="&lt;b&gt;&lt;font style=&quot;font-size: 20px&quot;&gt;Card title&lt;/font&gt;&lt;/b&gt;&lt;br style=&quot;font-size: 14px&quot;&gt;&lt;br style=&quot;font-size: 14px&quot;&gt;Some quick example text." style="html=1;shadow=0;dashed=0;shape=mxgraph.bootstrap.rrect;rSize=5;strokeColor=#DFDFDF;html=1;whiteSpace=wrap;fillColor=#ffffff;fontColor=#000000;verticalAlign=bottom;align=left;spacing=20;spacingBottom=50;fontSize=14;" vertex="1" parent="1">
          <mxGeometry x="520" y="1300" width="160" height="310" as="geometry" />
        </mxCell>
        <mxCell id="XIWKyDKtCgvxdbFmIk-G-95" value="Image cap" style="html=1;shadow=0;dashed=0;shape=mxgraph.bootstrap.topButton;rSize=5;perimeter=none;whiteSpace=wrap;fillColor=#868E96;strokeColor=#DFDFDF;fontColor=#DEE2E6;resizeWidth=1;fontSize=18;" vertex="1" parent="XIWKyDKtCgvxdbFmIk-G-94">
          <mxGeometry width="160" height="150" relative="1" as="geometry" />
        </mxCell>
        <mxCell id="XIWKyDKtCgvxdbFmIk-G-97" value="" style="dashed=0;outlineConnect=0;html=1;align=center;labelPosition=center;verticalLabelPosition=bottom;verticalAlign=top;shape=mxgraph.weblogos.github" vertex="1" parent="XIWKyDKtCgvxdbFmIk-G-94">
          <mxGeometry x="25" y="260" width="30" height="30" as="geometry" />
        </mxCell>
        <mxCell id="XIWKyDKtCgvxdbFmIk-G-98" value="&lt;u&gt;+ info&lt;/u&gt;" style="text;html=1;align=center;verticalAlign=middle;whiteSpace=wrap;rounded=0;" vertex="1" parent="XIWKyDKtCgvxdbFmIk-G-94">
          <mxGeometry x="70" y="260" width="60" height="30" as="geometry" />
        </mxCell>
        <mxCell id="XIWKyDKtCgvxdbFmIk-G-99" value="&lt;b&gt;&lt;font style=&quot;font-size: 20px&quot;&gt;Card title&lt;/font&gt;&lt;/b&gt;&lt;br style=&quot;font-size: 14px&quot;&gt;&lt;br style=&quot;font-size: 14px&quot;&gt;Some quick example text." style="html=1;shadow=0;dashed=0;shape=mxgraph.bootstrap.rrect;rSize=5;strokeColor=#DFDFDF;html=1;whiteSpace=wrap;fillColor=#ffffff;fontColor=#000000;verticalAlign=bottom;align=left;spacing=20;spacingBottom=50;fontSize=14;" vertex="1" parent="1">
          <mxGeometry x="300" y="1300" width="160" height="310" as="geometry" />
        </mxCell>
        <mxCell id="XIWKyDKtCgvxdbFmIk-G-100" value="Image cap" style="html=1;shadow=0;dashed=0;shape=mxgraph.bootstrap.topButton;rSize=5;perimeter=none;whiteSpace=wrap;fillColor=#868E96;strokeColor=#DFDFDF;fontColor=#DEE2E6;resizeWidth=1;fontSize=18;" vertex="1" parent="XIWKyDKtCgvxdbFmIk-G-99">
          <mxGeometry width="160" height="150" relative="1" as="geometry" />
        </mxCell>
        <mxCell id="XIWKyDKtCgvxdbFmIk-G-101" value="" style="dashed=0;outlineConnect=0;html=1;align=center;labelPosition=center;verticalLabelPosition=bottom;verticalAlign=top;shape=mxgraph.weblogos.github" vertex="1" parent="XIWKyDKtCgvxdbFmIk-G-99">
          <mxGeometry x="25" y="260" width="30" height="30" as="geometry" />
        </mxCell>
        <mxCell id="XIWKyDKtCgvxdbFmIk-G-102" value="+ info" style="text;html=1;align=center;verticalAlign=middle;whiteSpace=wrap;rounded=0;fontStyle=4" vertex="1" parent="XIWKyDKtCgvxdbFmIk-G-99">
          <mxGeometry x="70" y="260" width="60" height="30" as="geometry" />
        </mxCell>
        <mxCell id="XIWKyDKtCgvxdbFmIk-G-103" value="&lt;b&gt;&lt;font style=&quot;font-size: 20px&quot;&gt;Card title&lt;/font&gt;&lt;/b&gt;&lt;br style=&quot;font-size: 14px&quot;&gt;&lt;br style=&quot;font-size: 14px&quot;&gt;Some quick example text." style="html=1;shadow=0;dashed=0;shape=mxgraph.bootstrap.rrect;rSize=5;strokeColor=#DFDFDF;html=1;whiteSpace=wrap;fillColor=#ffffff;fontColor=#000000;verticalAlign=bottom;align=left;spacing=20;spacingBottom=50;fontSize=14;" vertex="1" parent="1">
          <mxGeometry x="740" y="1300" width="160" height="310" as="geometry" />
        </mxCell>
        <mxCell id="XIWKyDKtCgvxdbFmIk-G-104" value="Image cap" style="html=1;shadow=0;dashed=0;shape=mxgraph.bootstrap.topButton;rSize=5;perimeter=none;whiteSpace=wrap;fillColor=#868E96;strokeColor=#DFDFDF;fontColor=#DEE2E6;resizeWidth=1;fontSize=18;" vertex="1" parent="XIWKyDKtCgvxdbFmIk-G-103">
          <mxGeometry width="160" height="150" relative="1" as="geometry" />
        </mxCell>
        <mxCell id="XIWKyDKtCgvxdbFmIk-G-105" value="" style="dashed=0;outlineConnect=0;html=1;align=center;labelPosition=center;verticalLabelPosition=bottom;verticalAlign=top;shape=mxgraph.weblogos.github" vertex="1" parent="XIWKyDKtCgvxdbFmIk-G-103">
          <mxGeometry x="25" y="260" width="30" height="30" as="geometry" />
        </mxCell>
        <mxCell id="XIWKyDKtCgvxdbFmIk-G-106" value="&lt;u&gt;+ info&lt;/u&gt;" style="text;html=1;align=center;verticalAlign=middle;whiteSpace=wrap;rounded=0;" vertex="1" parent="XIWKyDKtCgvxdbFmIk-G-103">
          <mxGeometry x="70" y="260" width="60" height="30" as="geometry" />
        </mxCell>
        <mxCell id="XIWKyDKtCgvxdbFmIk-G-111" value="&lt;b&gt;&lt;font style=&quot;font-size: 20px&quot;&gt;Card title&lt;/font&gt;&lt;/b&gt;&lt;br style=&quot;font-size: 14px&quot;&gt;&lt;br style=&quot;font-size: 14px&quot;&gt;Some quick example text." style="html=1;shadow=0;dashed=0;shape=mxgraph.bootstrap.rrect;rSize=5;strokeColor=#DFDFDF;html=1;whiteSpace=wrap;fillColor=#ffffff;fontColor=#000000;verticalAlign=bottom;align=left;spacing=20;spacingBottom=50;fontSize=14;" vertex="1" parent="1">
          <mxGeometry x="740" y="1670" width="160" height="310" as="geometry" />
        </mxCell>
        <mxCell id="XIWKyDKtCgvxdbFmIk-G-112" value="Image cap" style="html=1;shadow=0;dashed=0;shape=mxgraph.bootstrap.topButton;rSize=5;perimeter=none;whiteSpace=wrap;fillColor=#868E96;strokeColor=#DFDFDF;fontColor=#DEE2E6;resizeWidth=1;fontSize=18;" vertex="1" parent="XIWKyDKtCgvxdbFmIk-G-111">
          <mxGeometry width="160" height="150" relative="1" as="geometry" />
        </mxCell>
        <mxCell id="XIWKyDKtCgvxdbFmIk-G-113" value="" style="dashed=0;outlineConnect=0;html=1;align=center;labelPosition=center;verticalLabelPosition=bottom;verticalAlign=top;shape=mxgraph.weblogos.github" vertex="1" parent="XIWKyDKtCgvxdbFmIk-G-111">
          <mxGeometry x="25" y="260" width="30" height="30" as="geometry" />
        </mxCell>
        <mxCell id="XIWKyDKtCgvxdbFmIk-G-114" value="&lt;u&gt;+ info&lt;/u&gt;" style="text;html=1;align=center;verticalAlign=middle;whiteSpace=wrap;rounded=0;" vertex="1" parent="XIWKyDKtCgvxdbFmIk-G-111">
          <mxGeometry x="70" y="260" width="60" height="30" as="geometry" />
        </mxCell>
        <mxCell id="XIWKyDKtCgvxdbFmIk-G-115" value="&lt;b&gt;&lt;font style=&quot;font-size: 20px&quot;&gt;Card title&lt;/font&gt;&lt;/b&gt;&lt;br style=&quot;font-size: 14px&quot;&gt;&lt;br style=&quot;font-size: 14px&quot;&gt;Some quick example text." style="html=1;shadow=0;dashed=0;shape=mxgraph.bootstrap.rrect;rSize=5;strokeColor=#DFDFDF;html=1;whiteSpace=wrap;fillColor=#ffffff;fontColor=#000000;verticalAlign=bottom;align=left;spacing=20;spacingBottom=50;fontSize=14;" vertex="1" parent="1">
          <mxGeometry x="520" y="1670" width="160" height="310" as="geometry" />
        </mxCell>
        <mxCell id="XIWKyDKtCgvxdbFmIk-G-116" value="Image cap" style="html=1;shadow=0;dashed=0;shape=mxgraph.bootstrap.topButton;rSize=5;perimeter=none;whiteSpace=wrap;fillColor=#868E96;strokeColor=#DFDFDF;fontColor=#DEE2E6;resizeWidth=1;fontSize=18;" vertex="1" parent="XIWKyDKtCgvxdbFmIk-G-115">
          <mxGeometry width="160" height="150" relative="1" as="geometry" />
        </mxCell>
        <mxCell id="XIWKyDKtCgvxdbFmIk-G-117" value="" style="dashed=0;outlineConnect=0;html=1;align=center;labelPosition=center;verticalLabelPosition=bottom;verticalAlign=top;shape=mxgraph.weblogos.github" vertex="1" parent="XIWKyDKtCgvxdbFmIk-G-115">
          <mxGeometry x="25" y="260" width="30" height="30" as="geometry" />
        </mxCell>
        <mxCell id="XIWKyDKtCgvxdbFmIk-G-118" value="&lt;u&gt;+ info&lt;/u&gt;" style="text;html=1;align=center;verticalAlign=middle;whiteSpace=wrap;rounded=0;" vertex="1" parent="XIWKyDKtCgvxdbFmIk-G-115">
          <mxGeometry x="70" y="260" width="60" height="30" as="geometry" />
        </mxCell>
        <mxCell id="XIWKyDKtCgvxdbFmIk-G-119" value="&lt;b&gt;&lt;font style=&quot;font-size: 20px&quot;&gt;Card title&lt;/font&gt;&lt;/b&gt;&lt;br style=&quot;font-size: 14px&quot;&gt;&lt;br style=&quot;font-size: 14px&quot;&gt;Some quick example text." style="html=1;shadow=0;dashed=0;shape=mxgraph.bootstrap.rrect;rSize=5;strokeColor=#DFDFDF;html=1;whiteSpace=wrap;fillColor=#ffffff;fontColor=#000000;verticalAlign=bottom;align=left;spacing=20;spacingBottom=50;fontSize=14;" vertex="1" parent="1">
          <mxGeometry x="300" y="1670" width="160" height="310" as="geometry" />
        </mxCell>
        <mxCell id="XIWKyDKtCgvxdbFmIk-G-120" value="Image cap" style="html=1;shadow=0;dashed=0;shape=mxgraph.bootstrap.topButton;rSize=5;perimeter=none;whiteSpace=wrap;fillColor=#868E96;strokeColor=#DFDFDF;fontColor=#DEE2E6;resizeWidth=1;fontSize=18;" vertex="1" parent="XIWKyDKtCgvxdbFmIk-G-119">
          <mxGeometry width="160" height="150" relative="1" as="geometry" />
        </mxCell>
        <mxCell id="XIWKyDKtCgvxdbFmIk-G-121" value="" style="dashed=0;outlineConnect=0;html=1;align=center;labelPosition=center;verticalLabelPosition=bottom;verticalAlign=top;shape=mxgraph.weblogos.github" vertex="1" parent="XIWKyDKtCgvxdbFmIk-G-119">
          <mxGeometry x="25" y="260" width="30" height="30" as="geometry" />
        </mxCell>
        <mxCell id="XIWKyDKtCgvxdbFmIk-G-122" value="+ info" style="text;html=1;align=center;verticalAlign=middle;whiteSpace=wrap;rounded=0;fontStyle=4" vertex="1" parent="XIWKyDKtCgvxdbFmIk-G-119">
          <mxGeometry x="70" y="260" width="60" height="30" as="geometry" />
        </mxCell>
        <mxCell id="XIWKyDKtCgvxdbFmIk-G-123" value="&lt;h1 style=&quot;forced-color-adjust: none; color: rgb(0, 0, 0); font-family: Helvetica; font-style: normal; font-variant-ligatures: normal; font-variant-caps: normal; letter-spacing: normal; orphans: 2; text-align: left; text-indent: 0px; text-transform: none; widows: 2; word-spacing: 0px; -webkit-text-stroke-width: 0px; white-space: normal; text-decoration-thickness: initial; text-decoration-style: initial; text-decoration-color: initial; margin-top: 0px;&quot;&gt;&lt;span&gt;Projects&lt;/span&gt;&lt;/h1&gt;" style="text;whiteSpace=wrap;html=1;" vertex="1" parent="1">
          <mxGeometry x="280" y="890" width="110" height="40" as="geometry" />
        </mxCell>
        <mxCell id="XIWKyDKtCgvxdbFmIk-G-124" value="&lt;b&gt;&lt;font style=&quot;font-size: 20px&quot;&gt;Card title&lt;/font&gt;&lt;/b&gt;&lt;br&gt;&lt;br&gt;This is a wider card with supporting text below as a natural lead-in to additional content. This content is a little bit longer.&lt;br&gt;&lt;br&gt;&lt;font style=&quot;font-size: 12px&quot; color=&quot;#999999&quot;&gt;Last udated 3 mind ago&lt;/font&gt;" style="html=1;shadow=0;dashed=0;shape=mxgraph.bootstrap.rrect;rSize=5;strokeColor=#DFDFDF;html=1;whiteSpace=wrap;fillColor=#ffffff;fontColor=#000000;verticalAlign=top;align=left;spacing=20;fontSize=14;spacingLeft=170;" vertex="1" parent="1">
          <mxGeometry x="300" y="990" width="600" height="240" as="geometry" />
        </mxCell>
        <mxCell id="XIWKyDKtCgvxdbFmIk-G-125" value="Image" style="html=1;shadow=0;dashed=0;shape=mxgraph.bootstrap.leftButton;rSize=5;perimeter=none;whiteSpace=wrap;fillColor=#868E96;strokeColor=#DFDFDF;fontColor=#DEE2E6;resizeWidth=1;fontSize=18;" vertex="1" parent="XIWKyDKtCgvxdbFmIk-G-124">
          <mxGeometry width="164.8854961832061" height="240" relative="1" as="geometry" />
        </mxCell>
      </root>
    </mxGraphModel>
  </diagram>
</mxfile>
